<svg xmlns="http://www.w3.org/2000/svg" xmlns:xlink="http://www.w3.org/1999/xlink" style="display: none;">
  <!-- HTML Icon -->
  <symbol id="html" viewBox="0 0 300 300">
    <path fill="#e34f26" d="M50 264 28 13h246l-22 251-101 28" />
  <path fill="#ef652a" d="m151 270 82-22 19-215H151" />
  <path fill="#ebebeb" d="M151 126h-41l-2-31h43V64H74v8l8 85h69zm0 80-35-9-2-24H84l3 48 64 18z" />
  <path fill="#fff" d="M151 126v31h38l-4 40-34 9v33l63-18 1-5 7-82 1-8h-9zm0-62v31h74l1-7 2-16v-8z" />
  </symbol>

  <!-- CSS Icon -->
  <symbol id="css" viewBox="0 0 300 300">
  <path fill="#1572b6" d="M50 263 28 13h245l-22 250-101 28zm0 0" />
  <path fill="#33a9dc" d="m150 270 82-23 19-214H150zm0 0" />
  <path fill="#fff" d="M150 124h41l3-31h-44V62h78l-1 8-8 85h-69zm0 0" />
  <path fill="#ebebeb" d="m151 204-35-9-2-25H83l5 48 63 18zm0 0" />
  <path fill="#fff" d="m189 153-4 42-34 9v32l63-18v-5l5-60zm0 0" />
  <path fill="#ebebeb" d="M151 62v31H76v-7l-2-16v-8zm-1 62v31h-33l-1-7-1-16-1-8zm0 0" />
  </symbol>

  <!-- JS Icon -->
  <symbol id="js" viewBox="0 0 32 32" >
<path d="M19 25.2879L21.0615 23.9237C21.2231 24.4313 22.2462 25.6368 23.5385 25.6368C24.8308 25.6368 25.4308 24.931 25.4308 24.463C25.4308 23.1878 24.1112 22.7382 23.4774 22.5223C23.374 22.4871 23.289 22.4581 23.2308 22.4328C23.2009 22.4198 23.1558 22.4025 23.0979 22.3804C22.393 22.1111 19.7923 21.1175 19.7923 18.2373C19.7923 15.065 22.8538 14.7002 23.5462 14.7002C23.9991 14.7002 26.1769 14.7557 27.2615 16.7939L25.2615 18.1898C24.8231 17.3015 24.0946 17.0081 23.6462 17.0081C22.5385 17.0081 22.3077 17.8201 22.3077 18.1898C22.3077 19.227 23.5112 19.6919 24.5273 20.0844C24.7932 20.1871 25.0462 20.2848 25.2615 20.3866C26.3692 20.91 28 21.7666 28 24.463C28 25.8136 26.8672 28.0002 24.0154 28.0002C20.1846 28.0002 19.1692 25.7003 19 25.2879Z" fill="#3E3E3E"/>
<path d="M9 25.5587L11.1487 24.1953C11.317 24.7026 11.9713 25.638 12.9205 25.638C13.8698 25.638 14.3557 24.663 14.3557 24.1953V15.0002H16.9982V24.1953C17.041 25.4636 16.3376 28.0002 13.2332 28.0002C10.379 28.0002 9.19242 26.3039 9 25.5587Z" fill="#3E3E3E"/>
  </symbol>

  <!-- Python Icon -->
  <symbol id="python" viewBox="0 0 1024 1024" xmlns="http://www.w3.org/2000/svg">
   <circle cx="512" cy="512" r="512" style="fill:#3776ab"/>
   <path transform="translate(428.423 184.256)" d="M81.7 73.2c-129.9 0-121.8 56.3-121.8 56.3l.1 58.4H84v17.5H-89.2s-83.1-9.4-83.1 121.7 72.6 126.4 72.6 126.4h43.3v-60.8s-2.3-72.6 71.4-72.6h123s69.1 1.1 69.1-66.8V141.1s10.4-67.9-125.4-67.9zm-68.3 39.3c12.3 0 22.3 10 22.3 22.3s-10 22.3-22.3 22.3-22.3-10-22.3-22.3 9.9-22.3 22.3-22.3zm72 469.8c129.9 0 121.8-56.3 121.8-56.3l-.1-58.4h-124v-17.5h173.2s83.1 9.4 83.1-121.7S266.8 202 266.8 202h-43.3v60.8s2.3 72.6-71.4 72.6h-123S-40 334.3-40 402.2v112.2s-10.3 67.9 125.4 67.9zm68.4-39.3c-12.3 0-22.3-10-22.3-22.3s10-22.3 22.3-22.3 22.3 10 22.3 22.3c0 12.4-10 22.3-22.3 22.3z" style="fill:#fff"/>

  </symbol>

  <!-- PHP Icon -->
  <symbol id="php" viewBox="0 0 128 128">
    <ellipse fill="#777BB3" cx="64" cy="64" rx="64" ry="40"/>
    <text x="50%" y="50%" fill="#fff" font-family="Arial, sans-serif" font-size="24" text-anchor="middle" alignment-baseline="middle">PHP</text>
  </symbol>

  <!-- postgresql Icon -->
  <symbol id="postgresql" viewBox="-4 0 264 264" version="1.1" xmlns="http://www.w3.org/2000/svg" xmlns:xlink="http://www.w3.org/1999/xlink" preserveAspectRatio="xMidYMid">
    <g>
        <path d="M255.007926,158.085617 C253.473109,153.437413 249.452194,150.199279 244.251788,149.42182 C241.799982,149.055852 238.991667,149.211935 235.668988,149.897164 C229.877358,151.092028 225.580342,151.546679 222.44449,151.635363 C234.280794,131.650217 243.905921,108.859714 249.446873,87.4065589 C258.406282,52.7182633 253.61855,36.9154365 248.023797,29.7669469 C233.217182,10.8477783 211.614448,0.683454965 185.55152,0.371879908 C171.649478,0.202198614 159.443658,2.94725173 153.077358,4.92075751 C147.149155,3.87547344 140.774577,3.29134411 134.08606,3.18315012 C121.550337,2.9833164 110.473164,5.71595381 101.008259,11.332582 C95.7670577,9.56127483 87.3580785,7.06335335 77.6460416,5.46882217 C54.8035104,1.71868822 36.3939769,4.64110855 22.9282587,14.153903 C6.62230023,25.6721293 -0.937090069,45.6838799 0.461154734,73.6339954 C0.904572748,82.5082679 5.86908083,109.507695 13.6850624,135.114199 C18.1771824,149.831538 22.9672794,162.053912 27.9223279,171.443732 C34.9490254,184.758688 42.4676212,192.600092 50.9085266,195.415501 C55.6400924,196.992296 64.2358984,198.09552 73.2774873,190.566873 C74.4232794,191.953885 75.9515935,193.33321 77.9812656,194.613801 C80.5578199,196.239076 83.7090439,197.566965 86.8555381,198.353885 C98.1969885,201.189395 108.820102,200.479926 117.882975,196.506309 C117.93855,198.117986 117.981709,199.658125 118.018365,200.987788 C118.07867,203.145164 118.137792,205.259972 118.217016,207.237617 C118.753848,220.612286 119.663741,231.011326 122.359723,238.286928 C122.507529,238.687778 122.706771,239.29733 122.917247,239.943538 C124.261691,244.062005 126.511298,250.955677 132.232573,256.355326 C138.158411,261.947714 145.325229,263.663446 151.888998,263.662855 C155.180933,263.662855 158.322106,263.231261 161.076619,262.640628 C170.897441,260.536462 182.050291,257.329663 190.118134,245.84218 C197.745515,234.981986 201.453672,218.625182 202.124711,192.851363 C202.211621,192.122975 202.292028,191.427104 202.369478,190.763751 C202.421506,190.316194 202.474716,189.858587 202.528517,189.402162 L204.325838,189.560018 L204.788767,189.591353 C214.791095,190.047187 227.021155,187.925875 234.532065,184.437062 C240.467363,181.68255 259.485857,171.642383 255.007926,158.085617" fill="#000000">

</path>
        <path d="M237.905589,160.722476 C208.165838,166.857016 206.121386,156.78788 206.121386,156.78788 C237.521885,110.194697 250.64824,51.0516028 239.320388,36.5766651 C208.417109,-2.90823095 154.921977,15.7655797 154.029229,16.2503834 L153.741894,16.3018199 C147.866309,15.0821247 141.290716,14.3555104 133.900416,14.2349007 C120.443566,14.0143741 110.236083,17.7627344 102.490457,23.636545 C102.490457,23.636545 7.06039723,-15.6768961 11.4987159,73.0806097 C12.4429007,91.9631224 38.5625866,215.954032 69.7171363,178.502947 C81.1041109,164.808425 92.1061986,153.229303 92.1061986,153.229303 C97.5708822,156.859418 104.112776,158.711132 110.970975,158.046005 L111.503667,157.593718 C111.338125,159.294079 111.413801,160.957192 111.717099,162.925968 C103.691233,171.893062 106.049626,173.467492 90.0055797,176.770069 C73.7711594,180.115806 83.308194,186.072388 89.5349654,187.629081 C97.0837136,189.516859 114.54788,192.190965 126.34812,175.672166 L125.877506,177.556988 C129.022226,180.075603 131.230448,193.940397 130.860342,206.508637 C130.490236,219.077469 130.243104,227.706383 132.720924,234.446337 C135.198744,241.186291 137.668286,256.351187 158.759612,251.831871 C176.383409,248.055132 185.516046,238.268009 186.786587,221.94254 C187.688203,210.336222 189.728517,212.051954 189.857404,201.675381 L191.493912,196.762901 C193.381099,181.029838 191.793663,175.95418 202.651492,178.314938 L205.290125,178.546697 C213.2817,178.9103 223.741044,177.261376 229.879723,174.408129 C243.098309,168.273589 250.93794,158.031224 237.904406,160.722476 L237.905589,160.722476" fill="#336791">

</path>
        <path d="M108.076342,81.5250624 C105.396915,81.152 102.969349,81.4972748 101.741376,82.426679 C101.050236,82.9499122 100.836804,83.5559169 100.779455,83.973321 C100.625145,85.0783187 101.399649,86.2997875 101.874993,86.9300323 C103.220619,88.7137552 105.18703,89.9399538 107.133339,90.2101432 C107.415353,90.249164 107.695594,90.2680831 107.974651,90.2680831 C111.220471,90.2680831 114.170679,87.7411917 114.430818,85.8758799 C114.755991,83.5399538 111.36473,81.9826697 108.076342,81.5250624" fill="#FFFFFF">

</path>
        <path d="M196.860453,81.5989654 L196.859861,81.5989654 C196.604453,79.7679446 193.345626,79.2458938 190.253524,79.6757136 C187.166152,80.1061247 184.171603,81.4996397 184.421691,83.3347991 C184.622707,84.7620139 187.19867,87.198448 190.249386,87.1978568 C190.506568,87.1978568 190.766707,87.1807113 191.028619,87.1440554 C193.064794,86.8620416 194.558818,85.5690346 195.268286,84.8235012 C196.349635,83.688351 196.974559,82.4219492 196.860453,81.5989654" fill="#FFFFFF">

</path>
        <path d="M247.802088,160.025423 C246.66812,156.596323 243.018494,155.492508 236.954309,156.745312 C218.949173,160.461155 212.501284,157.886965 210.38352,156.327908 C224.378975,135.007187 235.89188,109.236323 242.102688,85.1906513 C245.04521,73.8007206 246.670485,63.2231316 246.802919,54.601903 C246.949543,45.1375889 245.338457,38.1842032 242.014005,33.9362587 C228.611547,16.8108637 208.942115,7.62501617 185.131751,7.37256351 C168.763122,7.18869284 154.93321,11.3781062 152.252009,12.5558245 C146.60582,11.1516674 140.450587,10.2896628 133.750245,10.1796952 C121.461654,9.98104388 110.840314,12.9229746 102.045857,18.9191686 C98.2259584,17.4978661 88.3536998,14.10897 76.2814965,12.1644342 C55.4089238,8.80332564 38.8233164,11.3497275 26.9870115,19.7350577 C12.8638522,29.740933 6.34383372,47.626642 7.60727945,72.8943741 C8.03236952,81.3961755 12.8756767,107.547788 20.5202032,132.593219 C30.5822448,165.556915 41.5192979,184.218309 53.0280647,188.056536 C54.374873,188.505866 55.9286097,188.820397 57.6407945,188.820397 C61.8390762,188.820397 66.9856813,186.927889 72.3409885,180.490051 C81.2359538,169.788896 89.5408776,160.821801 92.6022356,157.563566 C97.1262818,159.992314 102.09552,161.347991 107.179455,161.483972 C107.188323,161.616998 107.201921,161.750023 107.213746,161.882457 C106.193885,163.092102 105.357303,164.152166 104.644286,165.05733 C101.122365,169.528166 100.389247,170.458753 89.0519353,172.793497 C85.8273995,173.458624 77.2611547,175.224018 77.1364065,181.227898 C76.9998337,187.787529 87.2605266,190.542633 88.4299677,190.834697 C92.5040924,191.854559 96.4286374,192.357691 100.171677,192.357691 C109.275344,192.357099 117.285838,189.365506 123.688203,183.576831 C123.490734,206.962697 124.466254,230.006836 127.273977,237.028212 C129.573247,242.775501 135.191649,256.822984 152.93842,256.821801 C155.54158,256.821801 158.408425,256.519095 161.561423,255.843326 C180.082106,251.872074 188.124527,243.686577 191.236139,225.640055 C192.901025,215.995418 195.758411,192.963695 197.101672,180.610069 C199.937774,181.49454 203.589173,181.899529 207.536185,181.898938 C215.768388,181.898938 225.266993,180.150097 231.224166,177.384942 C237.91564,174.277469 249.991982,166.650679 247.802088,160.025423 L247.802088,160.025423 Z M203.696185,76.5445912 C203.634697,80.1918522 203.132748,83.5027067 202.600647,86.9590023 C202.028342,90.6760277 201.435935,94.5189838 201.286947,99.1843326 C201.139732,103.724342 201.706716,108.444674 202.255372,113.008924 C203.363326,122.228471 204.500249,131.720573 200.098587,141.086744 C199.41454,139.871778 198.754143,138.546254 198.14873,137.078245 C197.601848,135.752129 196.414079,133.621949 194.769885,130.673515 C188.370476,119.197857 173.385312,92.3243603 181.056443,81.3583372 C183.340933,78.0935982 189.139658,74.7384018 203.696185,76.5445912 L203.696185,76.5445912 Z M186.052286,14.7581339 C207.386014,15.2293395 224.261321,23.2102725 236.209958,38.4780416 C245.373931,50.1890069 235.282919,103.476028 206.069949,149.446651 C205.781432,149.080092 205.487594,148.709986 205.183704,148.33042 C205.062503,148.178476 204.938938,148.024166 204.814189,147.868083 C212.362938,135.400942 210.886651,123.066236 209.572952,112.129774 C209.033164,107.641792 208.523529,103.402716 208.653007,99.4214134 C208.787215,95.2000739 209.34533,91.5811917 209.884527,88.0811455 C210.548471,83.7675751 211.223058,79.3050162 211.036822,74.0437136 C211.17576,73.4921016 211.231926,72.8399815 211.159206,72.0660693 C210.683861,67.0205635 204.924157,51.9224758 193.18363,38.2551501 C186.762346,30.7808961 177.396767,22.4156674 164.609774,16.7736166 C170.109931,15.6337367 177.631483,14.5707159 186.052286,14.7581339 L186.052286,14.7581339 Z M66.6741062,175.777995 C60.7742818,182.871501 56.6995658,181.512277 55.3598522,181.065903 C46.6292471,178.153533 36.499806,159.702023 27.568776,130.441755 C19.8408868,105.123769 15.3245266,79.6650716 14.9674273,72.5260416 C13.8387806,49.9483788 19.3117413,34.2129515 31.2349561,25.7572656 C50.6389284,11.9965266 82.5413764,20.2328684 95.3602956,24.4104573 C95.1758337,24.591963 94.9842771,24.7622356 94.8015889,24.9466975 C73.7664296,46.1911501 74.2654226,82.4875751 74.3168591,84.7058476 C74.3150855,85.56194 74.3866236,86.7739492 74.485358,88.4412009 C74.8471871,94.5455889 75.5205912,105.907732 73.7214965,118.775132 C72.0489238,130.732046 75.7346143,142.435326 83.8320185,150.883917 C84.6703741,151.758337 85.5453857,152.579547 86.4493672,153.352277 C82.8446744,157.212379 75.0115473,165.74788 66.6741062,175.777995 L66.6741062,175.777995 Z M89.1530346,145.78461 C82.6265127,138.975483 79.6627067,129.503483 81.020157,119.795584 C82.920351,106.202753 82.2185681,94.3646744 81.8419584,88.0048776 C81.7893395,87.1150855 81.7426328,86.335261 81.7148453,85.7197968 C84.7880277,82.9954365 99.0288406,75.3645081 109.184296,77.6915658 C113.819492,78.7534042 116.642587,81.9087667 117.816758,87.3373857 C123.893358,115.440037 118.621413,127.153367 114.385293,136.565654 C113.512055,138.504868 112.687298,140.337663 111.982559,142.234309 L111.436859,143.699954 C110.054577,147.406337 108.768665,150.851991 107.971695,154.124416 C101.034273,154.103132 94.2848591,151.139917 89.1530346,145.78461 L89.1530346,145.78461 Z M90.2178291,183.685025 C88.1922956,183.178938 86.3701432,182.299788 85.3012102,181.570808 C86.1939584,181.150448 87.7831686,180.579326 90.5388637,180.011751 C103.876286,177.265515 105.93552,175.328074 110.433552,169.61685 C111.465238,168.30788 112.634088,166.823316 114.252859,165.015353 C114.25345,165.014171 114.254042,165.01358 114.254633,165.012988 C116.666236,162.31346 117.768868,162.771067 119.768979,163.600554 C121.390115,164.271594 122.968684,166.303039 123.608979,168.539048 C123.911686,169.594975 124.252231,171.599815 123.138956,173.158873 C113.742633,186.31479 100.051067,186.1457 90.2178291,183.685025 L90.2178291,183.685025 Z M160.016554,248.637487 C143.700545,252.133395 137.923695,243.80837 134.116804,234.291436 C131.659677,228.146845 130.452397,200.440314 131.309081,169.84388 C131.320314,169.436527 131.262374,169.043363 131.150042,168.673848 C131.05249,167.96024 130.902319,167.238356 130.694208,166.511741 C129.419529,162.059824 126.315012,158.335704 122.5903,156.792018 C121.110467,156.178919 118.393792,155.05382 115.129644,155.888628 C115.826106,153.0206 117.033386,149.782467 118.341764,146.275326 L118.891012,144.79963 C119.509432,143.136517 120.284527,141.413691 121.105145,139.590356 C125.538143,129.741746 131.609423,116.25297 125.020231,85.7795104 C122.551871,74.3659307 114.310208,68.7924619 101.815871,70.0866513 C94.3250624,70.861746 87.472776,73.8840831 84.0549099,75.6169607 C83.3200185,75.9894319 82.6477968,76.3488961 82.0199169,76.6994919 C82.9735612,65.1990023 86.578254,43.707418 100.060527,30.1098568 C108.54873,21.548933 119.854115,17.3210901 133.628453,17.5487113 C160.768591,17.9933118 178.172453,31.9213672 187.994457,43.5276859 C196.457829,53.5294226 201.040998,63.6038799 202.870245,69.0372286 C189.115418,67.6389838 179.76048,70.3544758 175.017681,77.1340416 C164.700822,91.8815335 180.662097,120.506236 188.333229,134.262836 C189.739751,136.784406 190.954125,138.963067 191.336055,139.888924 C193.833977,145.943058 197.067972,149.984665 199.429321,152.935464 C200.152979,153.839446 200.855353,154.716231 201.389229,155.481866 C197.223464,156.683233 189.740342,159.457848 190.422023,173.328554 C189.872185,180.289035 185.960647,212.874938 183.974134,224.387843 C181.351464,239.597672 175.754346,245.263372 160.016554,248.637487 L160.016554,248.637487 Z M228.120831,170.700564 C223.861062,172.678208 216.732083,174.161589 209.959612,174.479667 C202.479446,174.830263 198.671963,173.641903 197.776259,172.91115 C197.355307,164.267455 200.573339,163.364065 203.978199,162.408055 C204.513256,162.257293 205.035307,162.111261 205.53903,161.935076 C205.852379,162.189894 206.195289,162.442938 206.570716,162.690661 C212.582873,166.658956 223.306494,167.087002 238.444785,163.962383 C238.50036,163.950559 238.555935,163.939917 238.610919,163.928684 C236.569423,165.837746 233.075289,168.400111 228.120831,170.700564 L228.120831,170.700564 Z" fill="#FFFFFF">
</path>
    </g>
  </symbol>

  <!-- Git Icon -->
  <symbol id="git" viewBox="0 0 32 32" fill="none" xmlns="http://www.w3.org/2000/svg">
<path d="M2.58536 17.4132C1.80488 16.6327 1.80488 15.3673 2.58536 14.5868L14.5868 2.58536C15.3673 1.80488 16.6327 1.80488 17.4132 2.58536L29.4146 14.5868C30.1951 15.3673 30.1951 16.6327 29.4146 17.4132L17.4132 29.4146C16.6327 30.1951 15.3673 30.1951 14.5868 29.4146L2.58536 17.4132Z" fill="#EE513B"/>
<path d="M12.1489 5.06152L10.9336 6.27686L14.0725 9.41577C13.9455 9.68819 13.8746 9.99201 13.8746 10.3124C13.8746 11.222 14.4461 11.9981 15.2496 12.3012V19.9798C14.4461 20.2829 13.8746 21.059 13.8746 21.9686C13.8746 23.1422 14.826 24.0936 15.9996 24.0936C17.1732 24.0936 18.1246 23.1422 18.1246 21.9686C18.1246 21.144 17.6549 20.429 16.9684 20.0768V12.3117L19.9689 15.3122C19.8481 15.5791 19.7809 15.8754 19.7809 16.1874C19.7809 17.361 20.7323 18.3124 21.9059 18.3124C23.0795 18.3124 24.0309 17.361 24.0309 16.1874C24.0309 15.0138 23.0795 14.0624 21.9059 14.0624C21.6778 14.0624 21.4582 14.0983 21.2522 14.1648L18.0297 10.9423C18.0914 10.7433 18.1246 10.5317 18.1246 10.3124C18.1246 9.13878 17.1732 8.18738 15.9996 8.18738C15.7803 8.18738 15.5688 8.22061 15.3697 8.2823L12.1489 5.06152Z" fill="white"/>
  </symbol>

  <!-- tailwind Icon -->
  <symbol id="tailwind" viewBox="0 0 32 32" xmlns="http://www.w3.org/2000/svg"><title>file_type_tailwind</title><path d="M9,13.7q1.4-5.6,7-5.6c5.6,0,6.3,4.2,9.1,4.9q2.8.7,4.9-2.1-1.4,5.6-7,5.6c-5.6,0-6.3-4.2-9.1-4.9Q11.1,10.9,9,13.7ZM2,22.1q1.4-5.6,7-5.6c5.6,0,6.3,4.2,9.1,4.9q2.8.7,4.9-2.1-1.4,5.6-7,5.6c-5.6,0-6.3-4.2-9.1-4.9Q4.1,19.3,2,22.1Z" style="fill:#44a8b3"/>
  </symbol>

<!-- linux-mint Icon -->
  <symbol id="linuxMint" viewBox="0 -13 256 256" version="1.1" xmlns="http://www.w3.org/2000/svg" xmlns:xlink="http://www.w3.org/1999/xlink" preserveAspectRatio="xMidYMid">
    <defs>
        <linearGradient x1="9.54406763%" y1="12.7597724%" x2="68.9176518%" y2="69.8843591%" id="linearGradient-1">
            <stop stop-color="#C7F994" offset="0%">

</stop>
            <stop stop-color="#87CF3E" offset="100%">

</stop>
        </linearGradient>
        <linearGradient x1="19.8107318%" y1="89.7377988%" x2="67.5734625%" y2="31.7902333%" id="linearGradient-2">
            <stop stop-color="#3D3D3D" offset="0%">

</stop>
            <stop stop-color="#000000" stop-opacity="0.11400651" offset="100%">

</stop>
        </linearGradient>
    </defs>
	<g>
		<path d="M30.2232874,145.851422 L30.1805804,96.6773758 L30.1805804,81.9511909 L0,81.9511909 L0,0 L127.272192,0.599373998 L167.084904,0.685011632 C214.731761,0.685011632 256,36.7304284 256,84.3345555 L256,229.501167 L119.13845,229.501167 C71.5343454,229.501189 30.2232874,193.41282 30.2232874,145.851422 Z" opacity="0.26000001" fill="#000000">

</path>
		<path d="M237.716949,191.536796 L237.716949,85.9955378 C237.716949,50.7354513 206.795167,22.1527928 168.642586,22.1527928 L129.043896,22.1527928 L129.043896,22.0676259 L21.9445099,21.5996561 L21.9445099,60.1081882 L38.3849271,60.1081882 C49.8607105,60.1081882 51.8880247,68.0301204 51.8880247,78.9949877 L51.9731917,147.073709 C51.9731917,182.333817 82.8951015,210.916433 121.005099,210.916433 L215.0986,210.916433 C227.161459,210.916433 237.717013,203.277131 237.717013,191.536711 L237.716949,191.536796 Z" fill="url(#linearGradient-1)">

</path>
		<path d="M228.378176,200.453167 C204.315257,183.870804 187.272643,164.822935 172.916943,139.60667 C144.61828,87.3305143 151.235089,61.3801516 81.1576265,55.2608347 C60.9341216,55.2608347 47.4725197,50.7847705 26.185963,50.7847705 L26.185963,58.1982519 C26.1859652,58.1982743 34.5980117,62.4672757 41.9920647,62.4672757 C53.0181707,62.4672981 54.9306878,70.1160861 54.9306878,80.6512865 L55.0006263,145.901135 C55.0006196,179.779525 84.7556167,207.237202 121.372266,207.237202 L211.732812,207.237202 C218.365399,207.237202 224.323354,204.623472 228.378176,200.453167 L228.378176,200.453167 Z" opacity="0.17514122" fill="url(#linearGradient-2)">

</path>
		<path d="M144.633118,61.7149612 C136.046438,61.7149612 128.41691,64.9029261 122.286732,71.095449 C116.159616,77.284682 112.942501,85.0114431 112.942523,93.7313756 L112.942523,137.808657 L132.934768,137.808657 L132.934768,93.7313756 C132.934768,90.3891433 134.025316,87.7757932 136.411662,85.3652088 C138.805842,82.9469032 141.341152,81.8521474 144.633118,81.8521474 C147.994083,81.8521474 150.491346,82.9413977 152.890763,85.3652088 C155.277132,87.7757932 156.36768,90.3891433 156.36768,93.7313756 L156.36768,137.808657 L176.359954,137.808657 L176.359954,93.7313756 C176.359954,90.3891433 177.450502,87.7757932 179.836871,85.3652088 C182.236287,82.9413977 184.733551,81.8521474 188.09456,81.8521474 C191.386549,81.8521474 193.921791,82.9469032 196.315971,85.3652088 C198.702318,87.7757932 199.792888,90.3891433 199.792888,93.7313756 L199.901657,145.233463 C199.901657,156.219828 189.43917,165.479104 175.997885,165.479104 L111.530141,165.225624 C101.157518,165.225624 92.2984451,155.129481 92.2984451,142.154826 L92.2984451,45.169078 L73.392754,45.169078 L73.392754,145.8852 C73.392754,156.571154 77.3030011,165.941951 84.9100342,173.519525 C91.4119494,179.937306 99.2313672,183.734911 108.01702,184.674481 L108.01702,185.036841 L179.800749,185.036841 C190.831382,185.036841 200.52233,180.935312 208.340403,172.975997 L208.376659,172.975997 C215.025897,166.144516 218.913023,157.958846 219.857696,148.746524 L219.785184,93.7313756 C219.785184,85.0114431 216.568147,77.284682 210.44093,71.095449 C204.310826,64.9029261 196.68124,61.7149612 188.094583,61.7149612 C179.666064,61.7149612 172.291099,64.8491462 166.327639,70.5882885 C160.381613,64.858613 153.058168,61.7149612 144.633141,61.7149612 L144.633118,61.7149612 Z" fill-opacity="0.08040203" fill="#000000">

</path>
		<path d="M143.036565,62.2397518 C134.449882,62.2397518 126.820356,65.4277054 120.690174,71.6202369 C114.563044,77.80946 111.345933,85.5362341 111.345954,94.2561526 L111.345954,138.333449 L131.338216,138.333449 L131.338216,94.2561526 C131.338216,90.913938 132.428758,88.300573 134.815097,85.8899863 C137.20929,83.471694 139.744596,82.3769256 143.036565,82.3769256 C146.39752,82.3769256 148.894789,83.466187 151.294213,85.8899863 C153.680573,88.300573 154.771136,90.913938 154.771136,94.2561526 L154.771136,138.333449 L174.763377,138.333449 L174.763377,94.2561526 C174.763377,90.913938 175.85394,88.300573 178.240321,85.8899863 C180.639723,83.466187 183.136992,82.3769256 186.498012,82.3769256 C189.790002,82.3769256 192.325244,83.471694 194.719395,85.8899863 C197.105755,88.300573 198.196318,90.913938 198.196318,94.2561526 L198.304965,145.758254 C198.304965,156.744615 187.842475,166.003882 174.401193,166.003882 L109.933464,165.750409 C99.5608375,165.750409 90.7017703,155.654265 90.7017703,142.679608 L90.7017703,45.6938685 L71.7960803,45.6938685 L71.7960803,146.409983 C71.7960803,157.095934 75.7063305,166.466729 83.3133586,174.044322 C89.8152659,180.462087 97.634699,184.622224 106.420318,185.561792 L178.204077,185.561622 C189.234709,185.561622 198.925637,181.460098 206.743726,173.500791 L206.780012,173.500791 C213.429222,166.669294 217.316377,158.483643 218.261047,149.271314 L218.188687,94.2561526 C218.188687,85.5362341 214.971682,77.80946 208.844467,71.6202369 C202.714348,65.4277054 195.084759,62.2397518 186.498119,62.2397518 C178.069603,62.2397518 170.694639,65.3739371 164.731162,71.1130775 C158.785123,65.383393 151.461708,62.2397518 143.036671,62.2397518 L143.036565,62.2397518 Z" fill="#FFFFFF">

</path>
		<path d="M131.279773,165.817411 L131.279773,185.561622 L178.238977,185.561622 C189.269566,185.561622 198.903246,181.447611 206.721313,173.488304 L206.788123,173.488304 C213.437355,166.656786 217.316441,158.487293 218.261111,149.274964 L218.261111,138.068791 L198.31679,138.068791 L198.31679,145.739683 C198.31679,156.726109 187.878228,165.950818 174.436946,165.950818 L131.279858,165.817411 L131.279773,165.817411 Z" opacity="0.3" fill="#52A800">

</path>
		<path d="M120.379411,225.53178 C74.9354525,225.53178 35.4989638,191.080972 35.4989638,145.67774 L35.4581947,90.5484247 L35.4581947,76.4904827 L6.6471224,76.4904827 L6.6471224,6.44453365 L128.144136,7.0167102 L166.150312,7.09846191 C211.635103,7.09846191 251.030737,41.5082666 251.030737,86.9522675 L251.030737,225.531759 L120.379475,225.531759 L120.379411,225.53178 Z M232.517904,188.357872 L232.517904,86.9522888 C232.517904,53.0738916 202.807819,25.6112528 166.150248,25.6112528 L128.103239,25.6112528 L128.103239,25.5295011 L25.2006184,25.0798667 L25.2006184,57.9777131 L36.7277581,57.9777131 C44.5537229,57.9777131 53.9707508,65.3321007 53.9707508,76.1244143 L54.0525025,145.637184 C54.0525025,179.515603 83.7627368,206.978199 120.379389,206.978199 L210.785782,206.978199 C222.375932,206.978199 232.517882,199.638241 232.517882,188.357872 L232.517904,188.357872 Z" fill="#FFFFFF">
</path>
	</g>
  </symbol> 

  <!-- bootstrap Icon -->
  <symbol id="bootstrap" viewBox="0 0 256 256" xmlns="http://www.w3.org/2000/svg" preserveAspectRatio="xMinYMin meet"><path d="M0 222.991C0 241.223 14.779 256 33.009 256H222.99C241.223 256 256 241.221 256 222.991V33.01C256 14.777 241.221 0 222.991 0H33.01C14.777 0 0 14.779 0 33.009V222.99z" fill="#563D7C"/><path d="M106.158 113.238V76.985h31.911c3.04 0 5.97.253 8.792.76 2.822.506 5.319 1.41 7.49 2.713 2.17 1.303 3.907 3.112 5.21 5.427 1.302 2.316 1.954 5.283 1.954 8.9 0 6.513-1.954 11.217-5.862 14.111-3.907 2.895-8.9 4.342-14.979 4.342h-34.516zM72.075 50.5v155h75.112c6.947 0 13.713-.868 20.298-2.605 6.585-1.737 12.446-4.414 17.584-8.032 5.137-3.618 9.226-8.286 12.265-14.002 3.04-5.717 4.559-12.483 4.559-20.298 0-9.697-2.352-17.982-7.055-24.856-4.704-6.875-11.832-11.687-21.384-14.437 6.947-3.328 12.194-7.598 15.74-12.808 3.545-5.21 5.318-11.722 5.318-19.538 0-7.236-1.194-13.314-3.582-18.235-2.388-4.92-5.753-8.864-10.095-11.831-4.341-2.967-9.551-5.102-15.63-6.404-6.078-1.303-12.808-1.954-20.189-1.954H72.075zm34.083 128.515v-42.549h37.121c7.381 0 13.315 1.7 17.802 5.102 4.486 3.401 6.73 9.081 6.73 17.041 0 4.053-.688 7.381-2.063 9.986-1.375 2.605-3.22 4.668-5.536 6.187-2.315 1.52-4.993 2.605-8.032 3.257-3.04.65-6.223.976-9.552.976h-36.47z" fill="#FFF"/>
  </symbol>

  <!-- GitHub Icon -->
  <symbol id="github" viewBox="0 0 1024 1024">
    <path fill-rule="evenodd" clip-rule="evenodd" d="M8 0C3.58 0 0 3.58 0 8C0 11.54 2.29 14.53 5.47 15.59C5.87 15.66 6.02 15.42 6.02 15.21C6.02 15.02 6.01 14.39 6.01 13.72C4 14.09 3.48 13.23 3.32 12.78C3.23 12.55 2.84 11.84 2.5 11.65C2.22 11.5 1.82 11.13 2.49 11.12C3.12 11.11 3.57 11.7 3.72 11.94C4.44 13.15 5.59 12.81 6.05 12.6C6.12 12.08 6.33 11.73 6.56 11.53C4.78 11.33 2.92 10.64 2.92 7.58C2.92 6.71 3.23 5.99 3.74 5.43C3.66 5.23 3.38 4.41 3.82 3.31C3.82 3.31 4.49 3.1 6.02 4.13C6.66 3.95 7.34 3.86 8.02 3.86C8.7 3.86 9.38 3.95 10.02 4.13C11.55 3.09 12.22 3.31 12.22 3.31C12.66 4.41 12.38 5.23 12.3 5.43C12.81 5.99 13.12 6.7 13.12 7.58C13.12 10.65 11.25 11.33 9.47 11.53C9.76 11.78 10.01 12.26 10.01 13.01C10.01 14.08 10 14.94 10 15.21C10 15.42 10.15 15.67 10.55 15.59C13.71 14.53 16 11.53 16 8C16 3.58 12.42 0 8 0Z" transform="scale(64)" fill="#fff"/>
  </symbol>

  <!-- Gmail Icon -->
  <symbol id="gmail" viewBox="0 0 512 512" xml:space="preserve">
<path style="fill:#E6F3FF;" d="M512,105.739v300.522c0,27.715-22.372,50.087-50.087,50.087H50.087
	C22.372,456.348,0,433.976,0,406.261V105.739c0-0.89,0-1.781,0.111-2.671c1.336-25.6,21.704-45.969,47.304-47.304
	c0.89-0.111,1.781-0.111,2.671-0.111h411.826c0.89,0,1.892,0,2.783,0.111c25.489,1.336,45.857,21.704,47.193,47.193
	C512,103.847,512,104.849,512,105.739z"/>
<path style="fill:#CFDBE6;" d="M464.696,55.763c-0.892-0.111-1.891-0.111-2.783-0.111H256v400.696h205.913
	c27.715,0,50.087-22.372,50.087-50.087V105.739c0-0.89,0-1.892-0.111-2.783C510.553,77.468,490.184,57.099,464.696,55.763z"/>
<path style="fill:#FF4B26;" d="M511.889,102.957c-1.336-25.489-21.704-45.857-47.193-47.193
	C382.89,137.569,336.951,183.509,256,264.459C225.291,233.732,77.61,85.958,47.416,55.763c-25.6,1.336-45.969,21.704-47.304,47.304
	C0,103.958,0,104.849,0,105.739v300.522c0,27.715,22.372,50.087,50.087,50.087h16.696V169.739l165.621,165.51
	c6.456,6.567,15.026,9.795,23.597,9.795c8.57,0,17.141-3.228,23.597-9.795l165.621-165.621v286.72h16.696
	c27.715,0,50.087-22.372,50.087-50.087V105.739C512,104.849,512,103.847,511.889,102.957z"/>
<path style="fill:#D93F21;" d="M279.596,335.249l165.621-165.621v286.72h16.696c27.715,0,50.087-22.372,50.087-50.087V105.739
	c0-0.89,0-1.892-0.111-2.783c-1.336-25.489-21.704-45.857-47.193-47.193C382.891,137.569,336.951,183.509,256,264.459v80.584
	C264.57,345.043,273.141,341.816,279.596,335.249z"/>
  </symbol>

  <!-- LinkedIn Icon -->
  <symbol id="linkedin" viewBox="0 0 24 24">
  <rect x="2" y="2" width="50" height="19" fill="var(--icon-color-secondary, transparent)" />
  <path
    d="M20.447 20.452h-3.554v-5.569c0-1.328-.027-3.037-1.852-3.037-1.853 0-2.136 1.445-2.136 2.939v5.667H9.351V9h3.414v1.561h.046c.477-.9 1.637-1.85 3.37-1.85 3.601 0 4.267 2.37 4.267 5.455v6.286zM5.337 7.433a2.062 2.062 0 0 1-2.063-2.065 2.064 2.064 0 1 1 2.063 2.065zm1.782 13.019H3.555V9h3.564v11.452zM22.225 0H1.771C.792 0 0 .774 0 1.729v20.542C0 23.227.792 24 1.771 24h20.451C23.2 24 24 23.227 24 22.271V1.729C24 .774 23.2 0 22.222 0h.003z" />
</symbol>
</svg>