<svg xmlns="http://www.w3.org/2000/svg" xmlns:xlink="http://www.w3.org/1999/xlink" style="display: none;">
  <!-- HTML Icon -->
  <symbol id="html" viewBox="0 0 300 300">
    <path fill="#e34f26" d="M50 264 28 13h246l-22 251-101 28" />
  <path fill="#ef652a" d="m151 270 82-22 19-215H151" />
  <path fill="#ebebeb" d="M151 126h-41l-2-31h43V64H74v8l8 85h69zm0 80-35-9-2-24H84l3 48 64 18z" />
  <path fill="#fff" d="M151 126v31h38l-4 40-34 9v33l63-18 1-5 7-82 1-8h-9zm0-62v31h74l1-7 2-16v-8z" />
  </symbol>

  <!-- CSS Icon -->
  <symbol id="css" viewBox="0 0 300 300">
  <path fill="#1572b6" d="M50 263 28 13h245l-22 250-101 28zm0 0" />
  <path fill="#33a9dc" d="m150 270 82-23 19-214H150zm0 0" />
  <path fill="#fff" d="M150 124h41l3-31h-44V62h78l-1 8-8 85h-69zm0 0" />
  <path fill="#ebebeb" d="m151 204-35-9-2-25H83l5 48 63 18zm0 0" />
  <path fill="#fff" d="m189 153-4 42-34 9v32l63-18v-5l5-60zm0 0" />
  <path fill="#ebebeb" d="M151 62v31H76v-7l-2-16v-8zm-1 62v31h-33l-1-7-1-16-1-8zm0 0" />
  </symbol>

  <!-- JS Icon -->
  <symbol id="js" viewBox="0 0 32 32" >
<path d="M19 25.2879L21.0615 23.9237C21.2231 24.4313 22.2462 25.6368 23.5385 25.6368C24.8308 25.6368 25.4308 24.931 25.4308 24.463C25.4308 23.1878 24.1112 22.7382 23.4774 22.5223C23.374 22.4871 23.289 22.4581 23.2308 22.4328C23.2009 22.4198 23.1558 22.4025 23.0979 22.3804C22.393 22.1111 19.7923 21.1175 19.7923 18.2373C19.7923 15.065 22.8538 14.7002 23.5462 14.7002C23.9991 14.7002 26.1769 14.7557 27.2615 16.7939L25.2615 18.1898C24.8231 17.3015 24.0946 17.0081 23.6462 17.0081C22.5385 17.0081 22.3077 17.8201 22.3077 18.1898C22.3077 19.227 23.5112 19.6919 24.5273 20.0844C24.7932 20.1871 25.0462 20.2848 25.2615 20.3866C26.3692 20.91 28 21.7666 28 24.463C28 25.8136 26.8672 28.0002 24.0154 28.0002C20.1846 28.0002 19.1692 25.7003 19 25.2879Z" fill="#3E3E3E"/>
<path d="M9 25.5587L11.1487 24.1953C11.317 24.7026 11.9713 25.638 12.9205 25.638C13.8698 25.638 14.3557 24.663 14.3557 24.1953V15.0002H16.9982V24.1953C17.041 25.4636 16.3376 28.0002 13.2332 28.0002C10.379 28.0002 9.19242 26.3039 9 25.5587Z" fill="#3E3E3E"/>
  </symbol>

  <!-- Python Icon -->
  <symbol id="python" viewBox="0 0 1024 1024" xmlns="http://www.w3.org/2000/svg">
   <circle cx="512" cy="512" r="512" style="fill:#3776ab"/>
   <path transform="translate(428.423 184.256)" d="M81.7 73.2c-129.9 0-121.8 56.3-121.8 56.3l.1 58.4H84v17.5H-89.2s-83.1-9.4-83.1 121.7 72.6 126.4 72.6 126.4h43.3v-60.8s-2.3-72.6 71.4-72.6h123s69.1 1.1 69.1-66.8V141.1s10.4-67.9-125.4-67.9zm-68.3 39.3c12.3 0 22.3 10 22.3 22.3s-10 22.3-22.3 22.3-22.3-10-22.3-22.3 9.9-22.3 22.3-22.3zm72 469.8c129.9 0 121.8-56.3 121.8-56.3l-.1-58.4h-124v-17.5h173.2s83.1 9.4 83.1-121.7S266.8 202 266.8 202h-43.3v60.8s2.3 72.6-71.4 72.6h-123S-40 334.3-40 402.2v112.2s-10.3 67.9 125.4 67.9zm68.4-39.3c-12.3 0-22.3-10-22.3-22.3s10-22.3 22.3-22.3 22.3 10 22.3 22.3c0 12.4-10 22.3-22.3 22.3z" style="fill:#fff"/>

  </symbol>

  <!-- PHP Icon -->
  <symbol id="php" viewBox="0 0 128 128">
    <ellipse fill="#777BB3" cx="64" cy="64" rx="64" ry="40"/>
    <text x="50%" y="50%" fill="#fff" font-family="Arial, sans-serif" font-size="24" text-anchor="middle" alignment-baseline="middle">PHP</text>
  </symbol>

  <!-- Git Icon -->
  <symbol id="git" viewBox="0 0 128 128">
    <path fill="#F05033" d="M64 0 0 64l64 64 64-64z"/>
    <circle fill="#fff" cx="64" cy="64" r="16"/>
  </symbol>

  <!-- GitHub Icon -->
  <symbol id="github" viewBox="0 0 1024 1024">
    <path fill-rule="evenodd" clip-rule="evenodd" d="M8 0C3.58 0 0 3.58 0 8C0 11.54 2.29 14.53 5.47 15.59C5.87 15.66 6.02 15.42 6.02 15.21C6.02 15.02 6.01 14.39 6.01 13.72C4 14.09 3.48 13.23 3.32 12.78C3.23 12.55 2.84 11.84 2.5 11.65C2.22 11.5 1.82 11.13 2.49 11.12C3.12 11.11 3.57 11.7 3.72 11.94C4.44 13.15 5.59 12.81 6.05 12.6C6.12 12.08 6.33 11.73 6.56 11.53C4.78 11.33 2.92 10.64 2.92 7.58C2.92 6.71 3.23 5.99 3.74 5.43C3.66 5.23 3.38 4.41 3.82 3.31C3.82 3.31 4.49 3.1 6.02 4.13C6.66 3.95 7.34 3.86 8.02 3.86C8.7 3.86 9.38 3.95 10.02 4.13C11.55 3.09 12.22 3.31 12.22 3.31C12.66 4.41 12.38 5.23 12.3 5.43C12.81 5.99 13.12 6.7 13.12 7.58C13.12 10.65 11.25 11.33 9.47 11.53C9.76 11.78 10.01 12.26 10.01 13.01C10.01 14.08 10 14.94 10 15.21C10 15.42 10.15 15.67 10.55 15.59C13.71 14.53 16 11.53 16 8C16 3.58 12.42 0 8 0Z" transform="scale(64)" fill="#fff"/>
  </symbol>

  <!-- Gmail Icon -->
  <symbol id="gmail" viewBox="0 0 512 512" xml:space="preserve">
<path style="fill:#E6F3FF;" d="M512,105.739v300.522c0,27.715-22.372,50.087-50.087,50.087H50.087
	C22.372,456.348,0,433.976,0,406.261V105.739c0-0.89,0-1.781,0.111-2.671c1.336-25.6,21.704-45.969,47.304-47.304
	c0.89-0.111,1.781-0.111,2.671-0.111h411.826c0.89,0,1.892,0,2.783,0.111c25.489,1.336,45.857,21.704,47.193,47.193
	C512,103.847,512,104.849,512,105.739z"/>
<path style="fill:#CFDBE6;" d="M464.696,55.763c-0.892-0.111-1.891-0.111-2.783-0.111H256v400.696h205.913
	c27.715,0,50.087-22.372,50.087-50.087V105.739c0-0.89,0-1.892-0.111-2.783C510.553,77.468,490.184,57.099,464.696,55.763z"/>
<path style="fill:#FF4B26;" d="M511.889,102.957c-1.336-25.489-21.704-45.857-47.193-47.193
	C382.89,137.569,336.951,183.509,256,264.459C225.291,233.732,77.61,85.958,47.416,55.763c-25.6,1.336-45.969,21.704-47.304,47.304
	C0,103.958,0,104.849,0,105.739v300.522c0,27.715,22.372,50.087,50.087,50.087h16.696V169.739l165.621,165.51
	c6.456,6.567,15.026,9.795,23.597,9.795c8.57,0,17.141-3.228,23.597-9.795l165.621-165.621v286.72h16.696
	c27.715,0,50.087-22.372,50.087-50.087V105.739C512,104.849,512,103.847,511.889,102.957z"/>
<path style="fill:#D93F21;" d="M279.596,335.249l165.621-165.621v286.72h16.696c27.715,0,50.087-22.372,50.087-50.087V105.739
	c0-0.89,0-1.892-0.111-2.783c-1.336-25.489-21.704-45.857-47.193-47.193C382.891,137.569,336.951,183.509,256,264.459v80.584
	C264.57,345.043,273.141,341.816,279.596,335.249z"/>
  </symbol>

  <!-- LinkedIn Icon -->
  <symbol id="linkedin" viewBox="0 0 24 24">
  <rect x="2" y="2" width="50" height="19" fill="var(--icon-color-secondary, transparent)" />
  <path
    d="M20.447 20.452h-3.554v-5.569c0-1.328-.027-3.037-1.852-3.037-1.853 0-2.136 1.445-2.136 2.939v5.667H9.351V9h3.414v1.561h.046c.477-.9 1.637-1.85 3.37-1.85 3.601 0 4.267 2.37 4.267 5.455v6.286zM5.337 7.433a2.062 2.062 0 0 1-2.063-2.065 2.064 2.064 0 1 1 2.063 2.065zm1.782 13.019H3.555V9h3.564v11.452zM22.225 0H1.771C.792 0 0 .774 0 1.729v20.542C0 23.227.792 24 1.771 24h20.451C23.2 24 24 23.227 24 22.271V1.729C24 .774 23.2 0 22.222 0h.003z" />
</symbol>
</svg>